<svg width="32" height="32" viewBox="0 0 32 32" fill="none" xmlns="http://www.w3.org/2000/svg">
<path fill-rule="evenodd" clip-rule="evenodd" d="M5.33338 24.75C4.91917 24.75 4.58338 24.4142 4.58338 24C4.58338 23.5858 4.91917 23.25 5.33338 23.25H16H19.75V24.75H5.33338ZM23.25 24.75H20.75V23.25H23.25V24.75ZM24.25 24.75H26.6667C27.0809 24.75 27.4167 24.4142 27.4167 24C27.4167 23.5858 27.0809 23.25 26.6667 23.25H24.25V24.75ZM27.4121 18.75C27.4152 18.7226 27.4167 18.6948 27.4167 18.6667C27.4167 18.2525 27.0809 17.9167 26.6667 17.9167H24.25V18.75H27.4121ZM24.0553 14.0833C24.6397 14.0834 25.1513 14.0832 25.563 14.0278C26.0094 13.9678 26.4486 13.8308 26.8064 13.473C27.1642 13.1152 27.3011 12.676 27.3612 12.2297C27.4168 11.8163 27.4168 11.3022 27.4167 10.7149V10.7149L27.4167 10.6667L27.4167 10.6185V10.6185C27.4168 10.0311 27.4168 9.51703 27.3612 9.10368C27.3011 8.65733 27.1642 8.21814 26.8064 7.86034C26.4486 7.50254 26.0094 7.36558 25.563 7.30553C25.1497 7.24993 24.6356 7.24996 24.0483 7.25L24.0483 7.25L24 7.25001H8.00005L7.95181 7.25L7.95177 7.25C7.36445 7.24996 6.85039 7.24993 6.43705 7.30553C5.99071 7.36558 5.55152 7.50254 5.19372 7.86034C4.83592 8.21814 4.69895 8.65733 4.63891 9.10368C4.5833 9.51704 4.58334 10.0311 4.58338 10.6185L4.58338 10.6667L4.58338 10.7149C4.58334 11.3022 4.5833 11.8163 4.63891 12.2297C4.69895 12.676 4.83592 13.1152 5.19372 13.473C5.55152 13.8308 5.99071 13.9678 6.43705 14.0278C6.85041 14.0834 7.3645 14.0834 7.95185 14.0833H7.95187L8.00005 14.0833H19.9447C20.2958 13.2977 21.0841 12.75 22 12.75C22.9159 12.75 23.7042 13.2977 24.0553 14.0833ZM21.1504 14.0833C21.3735 13.8765 21.6721 13.75 22 13.75C22.3279 13.75 22.6265 13.8765 22.8496 14.0833H21.1504ZM20.75 17.9167H23.25V19.4167H20.75V17.9167ZM19.75 17.9167H5.33338C4.91917 17.9167 4.58338 18.2525 4.58338 18.6667C4.58338 19.0809 4.91917 19.4167 5.33338 19.4167H14.4014C14.4039 19.4141 14.4065 19.4116 14.409 19.409C14.831 18.9871 15.4033 18.75 16 18.75H19.75V17.9167ZM6.25438 12.4123C6.28724 12.4452 6.35739 12.5036 6.63704 12.5412C6.93841 12.5817 7.35016 12.5833 8.00005 12.5833H24C24.6499 12.5833 25.0617 12.5817 25.3631 12.5412C25.6427 12.5036 25.7129 12.4452 25.7457 12.4123C25.7786 12.3795 25.837 12.3093 25.8746 12.0297C25.9151 11.7283 25.9167 11.3166 25.9167 10.6667C25.9167 10.0168 25.9151 9.60504 25.8746 9.30367C25.837 9.02401 25.7786 8.95387 25.7457 8.921C25.7129 8.88813 25.6427 8.82976 25.3631 8.79214C25.0617 8.7516 24.6499 8.75001 24 8.75001H8.00005C7.35016 8.75001 6.93841 8.7516 6.63704 8.79214C6.35738 8.82976 6.28724 8.88813 6.25438 8.921C6.22151 8.95387 6.16314 9.02401 6.12552 9.30367C6.08497 9.60504 6.08338 10.0168 6.08338 10.6667C6.08338 11.3166 6.08497 11.7283 6.12552 12.0297C6.16314 12.3093 6.22151 12.3795 6.25438 12.4123Z" fill="url(#paint0_linear_2223_135)"/>
<path d="M22 13.75C22.69 13.75 23.25 14.31 23.25 15V19.75H28C28.3315 19.75 28.6495 19.8817 28.8839 20.1161C29.1183 20.3505 29.25 20.6685 29.25 21C29.25 21.3315 29.1183 21.6495 28.8839 21.8839C28.6495 22.1183 28.3315 22.25 28 22.25H23.25V27C23.25 27.3315 23.1183 27.6495 22.8839 27.8839C22.6495 28.1183 22.3315 28.25 22 28.25C21.6685 28.25 21.3505 28.1183 21.1161 27.8839C20.8817 27.6495 20.75 27.3315 20.75 27V22.25H16C15.6685 22.25 15.3505 22.1183 15.1161 21.8839C14.8817 21.6495 14.75 21.3315 14.75 21C14.75 20.6685 14.8817 20.3505 15.1161 20.1161C15.3505 19.8817 15.6685 19.75 16 19.75H20.75V15C20.75 14.31 21.31 13.75 22 13.75Z" fill="#A8F99A"/>
<defs>
<linearGradient id="paint0_linear_2223_135" x1="16" y1="7.25" x2="16" y2="24.75" gradientUnits="userSpaceOnUse">
<stop stop-color="#E63B3B"/>
<stop offset="1" stop-color="#FEC767"/>
</linearGradient>
</defs>
</svg>
