<svg width="32" height="32" viewBox="0 0 32 32" fill="none" xmlns="http://www.w3.org/2000/svg">
<path fill-rule="evenodd" clip-rule="evenodd" d="M5.33338 24.75C4.91916 24.75 4.58338 24.4142 4.58338 24C4.58338 23.5858 4.91916 23.25 5.33338 23.25H26.6667C27.0809 23.25 27.4167 23.5858 27.4167 24C27.4167 24.4142 27.0809 24.75 26.6667 24.75H5.33338ZM5.33338 19.4167C4.91916 19.4167 4.58338 19.0809 4.58338 18.6667C4.58338 18.2525 4.91916 17.9167 5.33338 17.9167H26.6667C27.0809 17.9167 27.4167 18.2525 27.4167 18.6667C27.4167 18.6948 27.4152 18.7226 27.4121 18.75H16C15.4033 18.75 14.831 18.9871 14.409 19.409C14.4065 19.4116 14.4039 19.4141 14.4014 19.4167H5.33338ZM6.25438 12.4123C6.28724 12.4452 6.35739 12.5036 6.63704 12.5412C6.93841 12.5817 7.35016 12.5833 8.00005 12.5833H24C24.6499 12.5833 25.0617 12.5817 25.3631 12.5412C25.6427 12.5036 25.7129 12.4452 25.7457 12.4123C25.7786 12.3795 25.837 12.3093 25.8746 12.0297C25.9151 11.7283 25.9167 11.3166 25.9167 10.6667C25.9167 10.0168 25.9151 9.60504 25.8746 9.30367C25.837 9.02401 25.7786 8.95387 25.7457 8.921C25.7129 8.88814 25.6427 8.82977 25.3631 8.79214C25.0617 8.7516 24.6499 8.75001 24 8.75001H8.00005C7.35016 8.75001 6.93841 8.7516 6.63704 8.79214C6.35738 8.82977 6.28724 8.88814 6.25438 8.921C6.22151 8.95387 6.16314 9.02401 6.12552 9.30367C6.08497 9.60504 6.08338 10.0168 6.08338 10.6667C6.08338 11.3166 6.08497 11.7283 6.12552 12.0297C6.16314 12.3093 6.22151 12.3795 6.25438 12.4123ZM8.00005 14.0833L7.95187 14.0833H7.95185C7.3645 14.0834 6.85041 14.0834 6.43705 14.0278C5.99071 13.9678 5.55152 13.8308 5.19372 13.473C4.83592 13.1152 4.69895 12.676 4.63891 12.2297C4.5833 11.8163 4.58334 11.3022 4.58338 10.7149L4.58338 10.6667L4.58338 10.6185C4.58334 10.0311 4.5833 9.51704 4.63891 9.10368C4.69895 8.65733 4.83591 8.21814 5.19372 7.86034C5.55152 7.50254 5.99071 7.36558 6.43705 7.30554C6.85039 7.24993 7.36445 7.24996 7.95177 7.25L7.95181 7.25L8.00005 7.25001H24L24.0483 7.25L24.0483 7.25C24.6356 7.24996 25.1497 7.24993 25.563 7.30554C26.0094 7.36558 26.4486 7.50254 26.8064 7.86034C27.1642 8.21814 27.3011 8.65733 27.3612 9.10368C27.4168 9.51703 27.4168 10.0311 27.4167 10.6185V10.6185L27.4167 10.6667L27.4167 10.7149V10.7149C27.4168 11.3022 27.4168 11.8163 27.3612 12.2297C27.3011 12.676 27.1642 13.1152 26.8064 13.473C26.4486 13.8308 26.0094 13.9678 25.563 14.0278C25.1497 14.0834 24.6356 14.0834 24.0482 14.0833L24 14.0833H8.00005Z" fill="url(#paint0_linear_2225_394)"/>
<path d="M28 19.75C28.3315 19.75 28.6495 19.8817 28.8839 20.1161C29.1183 20.3505 29.25 20.6685 29.25 21C29.25 21.3315 29.1183 21.6495 28.8839 21.8839C28.6495 22.1183 28.3315 22.25 28 22.25C24 22.25 20 22.25 16 22.25C15.6685 22.25 15.3505 22.1183 15.1161 21.8839C14.8817 21.6495 14.75 21.3315 14.75 21C14.75 20.6685 14.8817 20.3505 15.1161 20.1161C15.3505 19.8817 15.6685 19.75 16 19.75C20 19.75 24 19.75 28 19.75Z" fill="#F03D3D"/>
<defs>
<linearGradient id="paint0_linear_2225_394" x1="16" y1="7.25" x2="16" y2="24.75" gradientUnits="userSpaceOnUse">
<stop stop-color="#E63B3B"/>
<stop offset="1" stop-color="#FEC767"/>
</linearGradient>
</defs>
</svg>
