<svg width="22" height="22" viewBox="0 0 22 22" fill="none" xmlns="http://www.w3.org/2000/svg">
<path d="M10.468 1.96248C9.98559 1.96502 9.63639 1.98818 9.27424 2.13817C8.99354 2.25436 8.73864 2.4242 8.52385 2.63898C8.30904 2.85378 8.13923 3.1087 8.02304 3.38937V3.39101C7.90228 3.68374 7.86845 3.9846 7.85556 4.33351V4.33844V4.34172C7.85262 4.46541 7.81779 4.58626 7.7554 4.69311C7.69459 4.79726 7.60851 4.88295 7.50582 4.94597C7.39969 5.00372 7.28193 5.03567 7.161 5.03628C7.03725 5.03692 6.91496 5.00692 6.80633 4.94762L6.80304 4.94598L6.79975 4.94434C6.49079 4.78061 6.2126 4.65931 5.89831 4.61758H5.89667C5.28922 4.5377 4.67511 4.70118 4.189 5.07405L4.18736 5.07569H4.18572C3.77477 5.39371 3.56626 5.80236 3.17425 6.48124C2.78307 7.15866 2.53079 7.54382 2.46326 8.06411C2.42355 8.36516 2.44383 8.67057 2.52237 8.96393C2.60092 9.25726 2.73654 9.53249 2.92138 9.77343C3.1153 10.025 3.35944 10.204 3.65371 10.3892C3.88126 10.5321 4.01166 10.7599 4.01166 11C4.01166 11.2401 3.88207 11.4673 3.65535 11.6092H3.65371L3.65207 11.6109C3.35891 11.7962 3.11442 11.974 2.91974 12.2282C2.73555 12.4688 2.60073 12.7435 2.52238 13.0361C2.44385 13.3294 2.42356 13.6349 2.46327 13.9359C2.53164 14.4539 2.78172 14.8404 3.17261 15.5188C3.56517 16.1972 3.77465 16.606 4.18736 16.9243L4.189 16.926C4.42991 17.1108 4.70341 17.2465 4.99686 17.325C5.29025 17.4036 5.59717 17.4223 5.89831 17.3825C6.21198 17.3407 6.49076 17.2194 6.79976 17.0557L6.80305 17.0541L6.80634 17.0524C6.91505 16.993 7.03733 16.9631 7.16101 16.9637C7.28248 16.9643 7.401 16.9958 7.50747 17.054C7.71517 17.176 7.84604 17.4007 7.85557 17.6665C7.86841 18.0151 7.9001 18.3158 8.02305 18.6106C8.13925 18.8913 8.30915 19.1462 8.52386 19.361C8.73863 19.5757 8.99352 19.7456 9.27425 19.8618C9.75706 20.0618 10.2164 20.0375 11 20.0375C11.7835 20.0375 12.2428 20.0618 12.7257 19.8618C13.0064 19.7456 13.2613 19.5758 13.4761 19.361C13.6907 19.1463 13.8607 18.8913 13.9769 18.6106V18.6089C14.0974 18.3168 14.1315 18.0162 14.1444 17.6664C14.1539 17.3997 14.2867 17.1744 14.4941 17.054C14.6003 16.9962 14.718 16.9643 14.8389 16.9637C14.9626 16.963 15.085 16.9931 15.1936 17.0523L15.1969 17.054L15.2002 17.0557C15.5092 17.2194 15.788 17.3406 16.1016 17.3825C16.4028 17.4222 16.7097 17.4036 17.0031 17.325C17.2966 17.2465 17.5717 17.1108 17.8126 16.926V16.9243C18.2271 16.6058 18.434 16.1971 18.8257 15.5188C19.2172 14.8407 19.4694 14.4552 19.5367 13.9342C19.5759 13.6341 19.5557 13.3282 19.4776 13.0361C19.399 12.7427 19.2634 12.4675 19.0786 12.2266C18.8846 11.975 18.6405 11.796 18.3462 11.6108L18.343 11.6075L18.338 11.6059C18.2323 11.5415 18.1449 11.4506 18.0835 11.3431C18.023 11.2372 17.9925 11.1186 17.9899 10.9967C17.9912 10.758 18.119 10.5319 18.3446 10.3908H18.3462L18.3479 10.3891C18.6401 10.2046 18.8841 10.0267 19.0786 9.77343C19.2634 9.53252 19.399 9.25723 19.4776 8.96393C19.5559 8.6712 19.5762 8.36473 19.5367 8.06411C19.4683 7.54608 19.2182 7.15961 18.8273 6.48124C18.4348 5.80286 18.2253 5.39406 17.8126 5.07569V5.07405C17.5717 4.88916 17.2965 4.75358 17.0031 4.67505C16.7098 4.59651 16.4027 4.57787 16.1016 4.61758C15.788 4.6594 15.5097 4.77922 15.2002 4.94269L15.1969 4.94598L15.1936 4.94762C15.085 5.00684 14.9627 5.03692 14.8389 5.03628C14.7193 5.03567 14.6028 5.0042 14.4974 4.94762C14.3938 4.88446 14.3056 4.79775 14.2445 4.69311C14.1821 4.58627 14.1473 4.46539 14.1444 4.34172V4.33843V4.33351C14.1315 3.9849 14.0999 3.68418 13.9769 3.38937C13.8607 3.10864 13.6908 2.85375 13.4761 2.63898C13.2612 2.4241 13.0063 2.25434 12.7257 2.13817C12.2428 1.93818 11.7835 1.96248 11 1.96248C10.8041 1.96248 10.6288 1.96163 10.468 1.96248ZM11 9.10842C12.0522 9.10842 12.8915 9.94783 12.8915 11C12.8915 12.0522 12.0522 12.8916 11 12.8916C9.94781 12.8916 9.1084 12.0522 9.1084 11C9.1084 9.94784 9.94782 9.10842 11 9.10842Z" fill="white"/>
</svg>
